HIERARCHY
ROOT Hips
{
  OFFSET -10.150 5.190 -290.533
  CHANNELS 6 Xposition Yposition Zposition Zrotation Xrotation Yrotation
  JOINT LeftUpLeg
  {
    OFFSET 7.670 -7.441 2.090
    CHANNELS 6 Xposition Yposition Zposition Zrotation Xrotation Yrotation
    JOINT LeftLeg
    {
      OFFSET 0.000 -48.996 0.000
      CHANNELS 6 Xposition Yposition Zposition Zrotation Xrotation Yrotation
      JOINT LeftFoot
      {
        OFFSET -0.000 -39.606 -0.000
        CHANNELS 6 Xposition Yposition Zposition Zrotation Xrotation Yrotation
        End Site
        {
          OFFSET -0.000 -10.662 6.156
        }
      }
    }
  }
  JOINT RightUpLeg
  {
    OFFSET -7.599 -7.499 1.300
    CHANNELS 6 Xposition Yposition Zposition Zrotation Xrotation Yrotation
    JOINT RightLeg
    {
      OFFSET -0.000 -49.318 0.000
      CHANNELS 6 Xposition Yposition Zposition Zrotation Xrotation Yrotation
      JOINT RightFoot
      {
        OFFSET 0.000 -42.095 -0.000
        CHANNELS 6 Xposition Yposition Zposition Zrotation Xrotation Yrotation
        End Site
        {
          OFFSET 0.000 -8.619 4.976
        }
      }
    }
  }
  JOINT Spine
  {
    OFFSET 0.000 6.194 -6.194
    CHANNELS 6 Xposition Yposition Zposition Zrotation Xrotation Yrotation
    JOINT LeftShoulder
    {
      OFFSET -0.000 23.667 0.000
      CHANNELS 6 Xposition Yposition Zposition Zrotation Xrotation Yrotation
      JOINT LeftArm
      {
        OFFSET 18.190 -0.000 -0.000
        CHANNELS 6 Xposition Yposition Zposition Zrotation Xrotation Yrotation
        JOINT LeftForeArm
        {
          OFFSET 27.583 -0.000 0.000
          CHANNELS 6 Xposition Yposition Zposition Zrotation Xrotation Yrotation
          JOINT LeftHand
          {
            OFFSET 27.583 0.000 -0.000
            CHANNELS 6 Xposition Yposition Zposition Zrotation Xrotation Yrotation
            JOINT LeftHandThumb1
            {
            OFFSET 4.970 -0.620 3.390
            CHANNELS 6 Xposition Yposition Zposition Zrotation Xrotation Yrotation
              JOINT LeftHandThumb2
              {
              OFFSET 2.150 -0.000 0.000
              CHANNELS 6 Xposition Yposition Zposition Zrotation Xrotation Yrotation
                JOINT LeftHandThumb3
                {
                OFFSET 2.200 -0.000 0.000
                CHANNELS 6 Xposition Yposition Zposition Zrotation Xrotation Yrotation
                  JOINT LeftHandThumb4
                  {
                  OFFSET 1.700 -0.000 0.000
                  CHANNELS 6 Xposition Yposition Zposition Zrotation Xrotation Yrotation
                  }
                }
              }
            }
            JOINT LeftHandIndex1
            {
            OFFSET 8.730 0.680 2.070
            CHANNELS 6 Xposition Yposition Zposition Zrotation Xrotation Yrotation
              JOINT LeftHandIndex2
              {
              OFFSET 2.670 -0.000 0.000
              CHANNELS 6 Xposition Yposition Zposition Zrotation Xrotation Yrotation
                JOINT LeftHandIndex3
                {
                OFFSET 2.130 -0.000 0.000
                CHANNELS 6 Xposition Yposition Zposition Zrotation Xrotation Yrotation
                  JOINT LeftHandIndex4
                  {
                  OFFSET 1.800 -0.000 0.000
                  CHANNELS 6 Xposition Yposition Zposition Zrotation Xrotation Yrotation
                  }
                }
              }
            }
            JOINT LeftHandMiddle1
            {
            OFFSET 9.220 0.670 0.550
            CHANNELS 6 Xposition Yposition Zposition Zrotation Xrotation Yrotation
              JOINT LeftHandMiddle2
              {
              OFFSET 2.660 -0.000 0.000
              CHANNELS 6 Xposition Yposition Zposition Zrotation Xrotation Yrotation
                JOINT LeftHandMiddle3
                {
                OFFSET 2.280 -0.000 0.000
                CHANNELS 6 Xposition Yposition Zposition Zrotation Xrotation Yrotation
                  JOINT LeftHandMiddle4
                  {
                  OFFSET 1.500 -0.000 0.000
                  CHANNELS 6 Xposition Yposition Zposition Zrotation Xrotation Yrotation
                  }
                }
              }
            }
            JOINT LeftHandRing1
            {
            OFFSET 9.250 0.670 -1.130
            CHANNELS 6 Xposition Yposition Zposition Zrotation Xrotation Yrotation
              JOINT LeftHandRing2
              {
              OFFSET 2.470 -0.000 0.000
              CHANNELS 6 Xposition Yposition Zposition Zrotation Xrotation Yrotation
                JOINT LeftHandRing3
                {
                OFFSET 2.210 -0.000 0.000
                CHANNELS 6 Xposition Yposition Zposition Zrotation Xrotation Yrotation
                  JOINT LeftHandRing4
                  {
                  OFFSET 1.800 -0.000 0.000
                  CHANNELS 6 Xposition Yposition Zposition Zrotation Xrotation Yrotation
                  }
                }
              }
            }
            JOINT LeftHandPinky1
            {
            OFFSET 9.350 0.660 -2.720
            CHANNELS 6 Xposition Yposition Zposition Zrotation Xrotation Yrotation
              JOINT LeftHandPinky2
              {
              OFFSET 1.630 -0.000 0.000
              CHANNELS 6 Xposition Yposition Zposition Zrotation Xrotation Yrotation
                JOINT LeftHandPinky3
                {
                OFFSET 1.710 -0.000 0.000
                CHANNELS 6 Xposition Yposition Zposition Zrotation Xrotation Yrotation
                  JOINT LeftHandPinky4
                  {
                  OFFSET 1.800 -0.000 0.000
                  CHANNELS 6 Xposition Yposition Zposition Zrotation Xrotation Yrotation
                  }
                }
              }
            }
          }
        }
      }
    }
    JOINT RightShoulder
    {
      OFFSET -0.000 23.667 0.000
      CHANNELS 6 Xposition Yposition Zposition Zrotation Xrotation Yrotation
      JOINT RightArm
      {
        OFFSET -17.773 0.000 -0.000
        CHANNELS 6 Xposition Yposition Zposition Zrotation Xrotation Yrotation
        JOINT RightForeArm
        {
          OFFSET -27.963 -0.000 0.000
          CHANNELS 6 Xposition Yposition Zposition Zrotation Xrotation Yrotation
          JOINT RightHand
          {
            OFFSET -27.375 0.000 -0.000
            CHANNELS 6 Xposition Yposition Zposition Zrotation Xrotation Yrotation
            JOINT RightHandThumb1
            {
            OFFSET -4.970 -0.620 3.390
            CHANNELS 6 Xposition Yposition Zposition Zrotation Xrotation Yrotation
              JOINT RightHandThumb2
              {
              OFFSET -2.150 0.000 0.000
              CHANNELS 6 Xposition Yposition Zposition Zrotation Xrotation Yrotation
                JOINT RightHandThumb3
                {
                OFFSET -2.200 0.000 0.000
                CHANNELS 6 Xposition Yposition Zposition Zrotation Xrotation Yrotation
                  JOINT RightHandThumb4
                  {
                  OFFSET -1.700 0.000 0.000
                  CHANNELS 6 Xposition Yposition Zposition Zrotation Xrotation Yrotation
                  }
                }
              }
            }
            JOINT RightHandIndex1
            {
            OFFSET -8.730 0.680 2.070
            CHANNELS 6 Xposition Yposition Zposition Zrotation Xrotation Yrotation
              JOINT RightHandIndex2
              {
              OFFSET -2.670 0.000 0.000
              CHANNELS 6 Xposition Yposition Zposition Zrotation Xrotation Yrotation
                JOINT RightHandIndex3
                {
                OFFSET -2.130 0.000 0.000
                CHANNELS 6 Xposition Yposition Zposition Zrotation Xrotation Yrotation
                  JOINT RightHandIndex4
                  {
                  OFFSET -1.800 0.000 0.000
                  CHANNELS 6 Xposition Yposition Zposition Zrotation Xrotation Yrotation
                  }
                }
              }
            }
            JOINT RightHandMiddle1
            {
            OFFSET -9.220 0.670 0.550
            CHANNELS 6 Xposition Yposition Zposition Zrotation Xrotation Yrotation
              JOINT RightHandMiddle2
              {
              OFFSET -2.660 0.000 0.000
              CHANNELS 6 Xposition Yposition Zposition Zrotation Xrotation Yrotation
                JOINT RightHandMiddle3
                {
                OFFSET -2.280 0.000 0.000
                CHANNELS 6 Xposition Yposition Zposition Zrotation Xrotation Yrotation
                  JOINT RightHandMiddle4
                  {
                  OFFSET -1.500 0.000 0.000
                  CHANNELS 6 Xposition Yposition Zposition Zrotation Xrotation Yrotation
                  }
                }
              }
            }
            JOINT RightHandRing1
            {
            OFFSET -9.250 0.670 -1.130
            CHANNELS 6 Xposition Yposition Zposition Zrotation Xrotation Yrotation
              JOINT RightHandRing2
              {
              OFFSET -2.470 0.000 0.000
              CHANNELS 6 Xposition Yposition Zposition Zrotation Xrotation Yrotation
                JOINT RightHandRing3
                {
                OFFSET -2.210 0.000 0.000
                CHANNELS 6 Xposition Yposition Zposition Zrotation Xrotation Yrotation
                  JOINT RightHandRing4
                  {
                  OFFSET -1.800 0.000 0.000
                  CHANNELS 6 Xposition Yposition Zposition Zrotation Xrotation Yrotation
                  }
                }
              }
            }
            JOINT RightHandPinky1
            {
            OFFSET -9.350 0.660 -2.720
            CHANNELS 6 Xposition Yposition Zposition Zrotation Xrotation Yrotation
              JOINT RightHandPinky2
              {
              OFFSET -1.630 0.000 0.000
              CHANNELS 6 Xposition Yposition Zposition Zrotation Xrotation Yrotation
                JOINT RightHandPinky3
                {
                OFFSET -1.710 0.000 0.000
                CHANNELS 6 Xposition Yposition Zposition Zrotation Xrotation Yrotation
                  JOINT RightHandPinky4
                  {
                  OFFSET -1.800 0.000 0.000
                  CHANNELS 6 Xposition Yposition Zposition Zrotation Xrotation Yrotation
                  }
                }
              }
            }
          }
        }
      }
    }
    JOINT Neck
    {
      OFFSET -0.000 23.667 0.000
      CHANNELS 6 Xposition Yposition Zposition Zrotation Xrotation Yrotation
      JOINT Head
      {
        OFFSET -0.000 31.945 -0.000
        CHANNELS 6 Xposition Yposition Zposition Zrotation Xrotation Yrotation
        End Site
        {
          OFFSET -0.000 0.128 -0.000
        }
      }
    }
  }
}
MOTION
Frames:	4
Frame Time:	0.0333333
-10.8854 6.71637 -291.271 1.67813 -7.80071 0.16173 7.25004 -7.20662 1.2578 4.25942 3.97303 -0.157557 1.44355e-06 -49.8283 0 -6.38027 5.2375 0.584818 0 -41.0056 4.76837e-05 28.2314 7.75788 13.6006 -7.3525 -7.02096 1.30584 -6.22234 2.0965 0.390985 -1.49012e-06 -50.4292 -2.38419e-05 5.83696 11.9712 -1.21473 0 -43.3222 -4.76837e-05 -4.48202 -3.1724 -2.85559 2.98023e-06 6.09445 -6.09436 -0.0960464 -3.52327 0.360873 -2.23517e-06 23.6673 -2.38419e-05 13.7084 9.39151e-06 -13.1164 16.8397 -5.96046e-06 7.15256e-05 -35.4449 -22.9278 -72.4818 26.878 1.19209e-05 0 3.77893e-06 -6.4033e-06 -36.1788 27.3081 3.57628e-05 0 10.4593 -0.0675131 -9.84482 0.0062 0.0497 0.0339 -13.4938 0 0 0 0.0215 0 0 -13.4938 0 0 0.022 0 0 -13.4938 0 0 0.017 0 0 0 0 -0.0068 0.0873 0.0207 -13.4938 0 0 0 0.0267 0 -23.9891 0 0 0 0.0213 0 -26.9877 0 0 0 0.018 0 0 0 0 -0.0067 0.0922 0.0055 -13.4938 0 0 0 0.0266 0 -23.9891 0 0 0 0.0228 0 -26.9877 0 0 0 0.015 0 0 0 0 -0.0067 0.0925 -0.0113 -13.4938 0 0 0 0.0247 0 -23.9891 0 0 0 0.0221 0 -26.9877 0 0 0 0.018 0 0 0 0 -0.0066 0.0935 -0.0272 -13.4938 0 0 0 0.0163 0 -23.9891 0 0 0 0.0171 0 -26.9877 0 0 0 0.018 0 0 0 0 -2.23517e-06 23.6673 -2.38419e-05 -12.7796 2.56132e-06 13.2037 -16.7303 -5.96046e-06 2.38419e-05 42.2125 -25.5427 75.0286 -27.2043 3.57628e-05 7.45058e-06 -6.9339e-06 6.4033e-07 37.3615 -27.0817 0 0 -4.83815 -0.0181535 4.94417 -0.0062 0.0497 0.0339 0 0 0 0 0.0215 0 0 0 0 0 0.022 0 0 0 0 0 0.017 0 0 0 0 0.0068 0.0873 0.0207 0 0 0 0 0.0267 0 0 0 0 0 0.0213 0 0 0 0 0 0.018 0 0 0 0 0.0067 0.0922 0.0055 0 0 0 0 0.0266 0 0 0 0 0 0.0228 0 0 0 0 0 0.015 0 0 0 0 0.0067 0.0925 -0.0113 0 0 0 0 0.0247 0 0 0 0 0 0.0221 0 0 0 0 0 0.018 0 0 0 0 0.0066 0.0935 -0.0272 0 0 0 0 0.0163 0 0 0 0 0 0.0171 0 0 0 0 0 0.018 0 0 0 0 -2.23517e-06 23.6673 -2.38419e-05 -2.16524 9.11964 0.343343 -4.47035e-06 30.5976 2.38419e-05 9.81506e-06 -1.02453e-05 -5.33608e-08 
-10.9321 6.4802 -291.446 1.9595 -7.46347 -0.732139 7.12208 -7.13684 1.01442 4.06492 3.39863 1.86549 -7.45058e-07 -49.7403 0 -6.35203 5.51903 0.613407 -7.45058e-07 -40.9454 2.38419e-05 28.0609 7.53952 13.6386 -7.27361 -6.84208 1.56035 -6.63479 1.66837 2.33944 -2.98023e-06 -50.2205 0 6.18416 11.6659 -1.25515 2.98023e-06 -43.3686 0 -4.68388 -3.17975 -2.9764 2.98023e-06 6.14455 -6.14457 -0.111772 -3.99861 0.903371 -2.98023e-06 23.6673 -4.76837e-05 13.7981 1.28066e-05 -13.6807 16.943 1.78814e-05 0 -43.0162 -17.2941 -70.5504 26.3976 -1.19209e-05 1.30385e-06 -1.72936e-05 -2.88149e-06 -37.5578 28.5813 3.57628e-05 -3.57628e-05 9.45381 -0.0544898 -10.3482 0.0062 0.0497 0.0339 -23.9572 0 0 0 0.0215 0 0 -23.9572 0 0 0.022 0 0 -23.9572 0 0 0.017 0 0 0 0 -0.0068 0.0873 0.0207 -23.9572 0 0 0 0.0267 0 -42.5905 0 0 0 0.0213 0 -47.9144 0 0 0 0.018 0 0 0 0 -0.0067 0.0922 0.0055 -23.9572 0 0 0 0.0266 0 -42.5905 0 0 0 0.0228 0 -47.9144 0 0 0 0.015 0 0 0 0 -0.0067 0.0925 -0.0113 -23.9572 0 0 0 0.0247 0 -42.5905 0 0 0 0.0221 0 -47.9144 0 0 0 0.018 0 0 0 0 -0.0066 0.0935 -0.0272 -23.9572 0 0 0 0.0163 0 -42.5905 0 0 0 0.0171 0 -47.9144 0 0 0 0.018 0 0 0 0 -2.98023e-06 23.6673 -4.76837e-05 -12.0505 1.70755e-06 14.2639 -16.2637 1.19209e-05 -2.38419e-05 44.8765 -20.5689 72.6743 -26.7944 -3.57628e-05 7.45058e-06 1.17146e-05 -1.45742e-06 36.5858 -28.3148 1.19209e-05 2.38419e-05 -4.09311 -0.0121128 5.92318 -0.0062 0.0497 0.0339 13.4967 0 0 0 0.0215 0 0 -13.4967 0 0 0.022 0 0 -13.4967 0 0 0.017 0 0 0 0 0.0068 0.0873 0.0207 13.4967 0 0 0 0.0267 0 23.9941 0 0 0 0.0213 0 26.9934 0 0 0 0.018 0 0 0 0 0.0067 0.0922 0.0055 13.4967 0 0 0 0.0266 0 23.9941 0 0 0 0.0228 0 26.9934 0 0 0 0.015 0 0 0 0 0.0067 0.0925 -0.0113 13.4967 0 0 0 0.0247 0 23.9941 0 0 0 0.0221 0 26.9934 0 0 0 0.018 0 0 0 0 0.0066 0.0935 -0.0272 13.4967 0 0 0 0.0163 0 23.9941 0 0 0 0.0171 0 26.9934 0 0 0 0.018 0 0 0 0 -2.98023e-06 23.6673 -4.76837e-05 -2.53581 9.59979 0.423154 -4.47035e-06 30.9068 4.76837e-05 9.69312e-06 -9.60495e-06 6.67011e-09 
-10.9643 5.74881 -291.579 2.64906 -7.14833 -1.62187 6.99566 -6.91979 0.994587 3.46018 3.07592 2.48731 9.31323e-07 -49.3512 4.76837e-05 -6.47093 5.43703 0.615729 -7.45058e-07 -40.8891 0 28.0954 7.64161 13.615 -7.28127 -6.67017 1.67353 -7.45718 1.0501 2.85779 0 -49.4783 0 6.25797 11.7024 -1.27415 2.98023e-06 -43.4083 0 -4.80734 -3.21291 -3.05427 0 6.21134 -6.2113 -0.890021 -4.68127 1.50779 -2.23517e-06 23.6673 2.38419e-05 15.0231 9.39151e-06 -14.6905 17.0462 1.78814e-05 -7.15256e-05 -52.2287 -12.9601 -67.7339 25.7596 1.19209e-05 1.11759e-05 2.29191e-06 1.4941e-06 -38.716 29.2192 -5.96046e-06 -2.38419e-05 9.97122 -0.0495122 -10.7978 0.0062 0.0497 0.0339 -31.9904 0 0 0 0.0215 0 0 -31.9904 0 0 0.022 0 0 -31.9904 0 0 0.017 0 0 0 0 -0.0068 0.0873 0.0207 -31.9904 0 0 0 0.0267 0 -56.8718 0 0 0 0.0213 0 -63.9808 0 0 0 0.018 0 0 0 0 -0.0067 0.0922 0.0055 -31.9904 0 0 0 0.0266 0 -56.8718 0 0 0 0.0228 0 -63.9808 0 0 0 0.015 0 0 0 0 -0.0067 0.0925 -0.0113 -31.9904 0 0 0 0.0247 0 -56.8718 0 0 0 0.0221 0 -63.9808 0 0 0 0.018 0 0 0 0 -0.0066 0.0935 -0.0272 -31.9904 0 0 0 0.0163 0 -56.8718 0 0 0 0.0171 0 -63.9808 0 0 0 0.018 0 0 0 0 -2.23517e-06 23.6673 2.38419e-05 -10.4628 2.56132e-06 15.7362 -15.9393 -5.96046e-06 -2.38419e-05 45.0586 -16.7463 70.207 -28.2555 2.38419e-05 3.72529e-07 7.39838e-06 -5.89637e-06 35.7378 -26.967 2.38419e-05 0 -7.45029 -0.0795606 10.0644 -0.0062 0.0497 0.0339 23.9597 0 0 0 0.0215 0 0 -23.9597 0 0 0.022 0 0 -23.9597 0 0 0.017 0 0 0 0 0.0068 0.0873 0.0207 23.9597 0 0 0 0.0267 0 42.5949 0 0 0 0.0213 0 47.9193 0 0 0 0.018 0 0 0 0 0.0067 0.0922 0.0055 23.9597 0 0 0 0.0266 0 42.5949 0 0 0 0.0228 0 47.9193 0 0 0 0.015 0 0 0 0 0.0067 0.0925 -0.0113 23.9597 0 0 0 0.0247 0 42.5949 0 0 0 0.0221 0 47.9193 0 0 0 0.018 0 0 0 0 0.0066 0.0935 -0.0272 23.9597 0 0 0 0.0163 0 42.5949 0 0 0 0.0171 0 47.9193 0 0 0 0.018 0 0 0 0 -2.23517e-06 23.6673 2.38419e-05 -2.26738 10.346 0.407409 -1.49012e-06 31.5611 0 1.01177e-05 -9.17807e-06 0 
-11.0209 4.71908 -291.618 2.1642 -6.59054 -1.44878 6.98283 -6.59777 1.26843 4.18207 2.67627 1.0284 -2.98023e-06 -48.6208 2.38419e-05 -6.76595 5.0567 0.599128 7.45058e-07 -40.8612 -7.15256e-05 28.2604 7.93291 13.5539 -7.12878 -6.39259 1.57869 -7.09975 0.301428 1.30025 -2.98023e-06 -48.7434 2.38419e-05 6.17525 12.0065 -1.28937 0 -43.3965 0 -4.79654 -3.26385 -3.05077 1.49012e-06 6.30637 -6.30641 -0.400948 -5.35568 0.776654 -2.98023e-06 23.6673 -2.38419e-05 13.5182 1.02453e-05 -16.4498 16.5119 0 2.38419e-05 -48.5474 -11.5239 -62.654 25.8635 -1.19209e-05 -5.96046e-06 -1.14692e-05 -5.86969e-06 -39.4694 29.5448 -5.96046e-06 -2.38419e-05 10.2305 -0.0439504 -10.9162 0.0062 0.0497 0.0339 -38.0871 0 0 0 0.0215 0 0 -38.0871 0 0 0.022 0 0 -38.0871 0 0 0.017 0 0 0 0 -0.0068 0.0873 0.0207 -38.0871 0 0 0 0.0267 0 -67.7105 0 0 0 0.0213 0 -76.1743 0 0 0 0.018 0 0 0 0 -0.0067 0.0922 0.0055 -38.0871 0 0 0 0.0266 0 -67.7105 0 0 0 0.0228 0 -76.1743 0 0 0 0.015 0 0 0 0 -0.0067 0.0925 -0.0113 -38.0871 0 0 0 0.0247 0 -67.7105 0 0 0 0.0221 0 -76.1743 0 0 0 0.018 0 0 0 0 -0.0066 0.0935 -0.0272 -38.0871 0 0 0 0.0163 0 -67.7105 0 0 0 0.0171 0 -76.1743 0 0 0 0.018 0 0 0 0 -2.98023e-06 23.6673 -2.38419e-05 -11.4235 8.53774e-07 17.2887 -15.7334 -5.96046e-06 7.15256e-05 46.7347 -14.6363 67.8519 -29.018 -1.19209e-05 4.47035e-06 8.40053e-06 -1.89965e-05 35.7157 -26.1485 1.19209e-05 -1.19209e-05 -11.5307 -0.263464 14.6487 -0.0062 0.0497 0.0339 31.9925 0 0 0 0.0215 0 0 -31.9925 0 0 0.022 0 0 -31.9925 0 0 0.017 0 0 0 0 0.0068 0.0873 0.0207 31.9925 0 0 0 0.0267 0 56.8756 0 0 0 0.0213 0 63.9851 0 0 0 0.018 0 0 0 0 0.0067 0.0922 0.0055 31.9925 0 0 0 0.0266 0 56.8756 0 0 0 0.0228 0 63.9851 0 0 0 0.015 0 0 0 0 0.0067 0.0925 -0.0113 31.9925 0 0 0 0.0247 0 56.8756 0 0 0 0.0221 0 63.9851 0 0 0 0.018 0 0 0 0 0.0066 0.0935 -0.0272 31.9925 0 0 0 0.0163 0 56.8756 0 0 0 0.0171 0 63.9851 0 0 0 0.018 0 0 0 0 -2.98023e-06 23.6673 -2.38419e-05 -2.17772 9.8072 0.371113 -2.98023e-06 32.462 0 1.01819e-05 -9.8184e-06 1.60083e-07 
